# Blender 4.2.1 LTS
# www.blender.org
mtllib HOLE_SQUARE.mtl
o Cube.001
v 0.625346 8.000000 -0.625346
v 1.000000 0.000000 -1.000000
v 0.625346 8.000000 0.625346
v 1.000000 0.000000 1.000000
v -0.625346 8.000000 -0.625346
v -1.000000 0.000000 -1.000000
v -0.625346 8.000000 0.625346
v -1.000000 0.000000 1.000000
v 1.000000 8.000000 1.000000
v -1.000000 8.000000 1.000000
v 1.000000 8.000000 -1.000000
v -1.000000 8.000000 -1.000000
v 0.625346 8.000000 0.625346
v -0.625346 8.000000 0.625346
v 0.625346 8.000000 -0.625346
v -0.625346 8.000000 -0.625346
v 0.625346 4.000000 0.625346
v -0.625346 4.000000 0.625346
v 0.625346 4.000000 -0.625346
v -0.625346 4.000000 -0.625346
v 0.625346 1.000000 0.625346
v -0.625346 1.000000 0.625346
v 0.625346 1.000000 -0.625346
v -0.625346 1.000000 -0.625346
vn -0.0000 1.0000 -0.0000
vn -0.0000 -0.0000 1.0000
vn -1.0000 -0.0000 -0.0000
vn -0.0000 -1.0000 -0.0000
vn 1.0000 -0.0000 -0.0000
vn -0.0000 -0.0000 -1.0000
vt 0.828168 0.546832
vt 0.828168 0.703168
vt 0.375000 0.750000
vt 0.625000 0.750000
vt 0.625000 1.000000
vt 0.375000 1.000000
vt 0.375000 0.000000
vt 0.625000 0.000000
vt 0.625000 0.250000
vt 0.375000 0.250000
vt 0.125000 0.500000
vt 0.375000 0.500000
vt 0.125000 0.750000
vt 0.625000 0.500000
vt 0.671832 0.703168
vt 0.875000 0.750000
vt 0.671832 0.546832
vt 0.875000 0.500000
s 1
usemtl Material.blue
f 5/1/1 7/2/1 14/2/1 16/1/1
f 4/3/2 9/4/2 10/5/2 8/6/2
f 8/7/3 10/8/3 12/9/3 6/10/3
f 6/11/4 2/12/4 4/3/4 8/13/4
f 2/12/5 11/14/5 9/4/5 4/3/5
f 6/10/6 12/9/6 11/14/6 2/12/6
f 3/15/1 7/2/1 10/16/1 9/4/1
f 1/17/1 3/15/1 9/4/1 11/14/1
f 7/2/1 5/1/1 12/18/1 10/16/1
f 5/1/1 1/17/1 11/14/1 12/18/1
f 16/1/5 14/2/5 18/2/5 20/1/5
f 7/2/1 3/15/1 13/15/1 14/2/1
f 1/17/1 5/1/1 16/1/1 15/17/1
f 3/15/1 1/17/1 15/17/1 13/15/1
f 19/17/2 20/1/2 24/1/2 23/17/2
f 14/2/6 13/15/6 17/15/6 18/2/6
f 15/17/2 16/1/2 20/1/2 19/17/2
f 13/15/3 15/17/3 19/17/3 17/15/3
f 23/17/1 24/1/1 22/2/1 21/15/1
f 17/15/3 19/17/3 23/17/3 21/15/3
f 20/1/5 18/2/5 22/2/5 24/1/5
f 18/2/6 17/15/6 21/15/6 22/2/6
