# Aspose.3D Wavefront OBJ Exporter
# Copyright 2004-2024 Aspose Pty Ltd.
# File created: 02/08/2025 20:22:58

g obj_31204142

#
# object obj_31204142
#

v 0 8 0.625346
v 0 4 0.625346
v 1 0 -0.374654
v 1 8 -0.374654
v 1 8 0.374654
v 1 0 0.374654
v -0.62538135 8 -0.62538135
v -0.625346 8 -0.625346
v 0.625346 8 -0.625346
v 0.62538135 8 -0.62538135
v 0.374654 8 -1
v -0.374654 8 -1
v -0.374654 0 -1
v 0.374654 0 -1
v 0.9162196 0 0.687327
v 0.687327 0 0.9162196
v 0.374654 0 1
v -0.374654 0 1
v -0.687327 0 0.9162196
v -0.9162196 0 0.687327
v -1 0 0.374654
v -1 0 -0.374654
v -0.9162196 0 -0.687327
v -0.687327 0 -0.9162196
v 0.687327 0 -0.9162196
v 0.9162196 0 -0.687327
v -1 8 0.374654
v -1 8 -0.374654
v -0.62538135 8 0.62538135
v -0.625346 8 0.625346
v 0.625346 8 0.625346
v 0.62538135 8 0.62538135
v -0.374654 8 1
v 0.374654 8 1
v 0 8 -0.625346
v 0 4 -0.625346
v 0.625346 8 0
v -0.625346 8 0
v -0.625346 4 0
v 0 1 -0.625346
v 0.625346 4 0
v -0.625346 1 0
v -0.54156554 1 0.312673
v -0.312673 1 -0.54156554
v -0.54156554 1 -0.312673
v -0.312673 1 0.54156554
v 0.312673 1 -0.54156554
v 0.54156554 1 -0.312673
v 0.54156554 1 0.312673
v 0.625346 1 0
v 0.312673 1 0.54156554
v 0 1 0.625346
v -0.687327 8 -0.9162196
v -0.9162196 8 -0.687327
v 0.9162196 8 -0.687327
v 0.687327 8 -0.9162196
v -0.9162196 8 0.687327
v -0.687327 8 0.9162196
v 0.687327 8 0.9162196
v 0.9162196 8 0.687327
v -0.54156554 8 -0.312673
v -0.312673 8 -0.54156554
v 0.312673 8 -0.54156554
v 0.54156554 8 -0.312673
v -0.312673 8 0.54156554
v -0.54156554 8 0.312673
v 0.54156554 8 0.312673
v 0.312673 8 0.54156554
v 0.312673 4 -0.54156554
v 0.54156554 4 -0.312673
v 0.312673 4 0.54156554
v 0.54156554 4 0.312673
v -0.54156554 4 -0.312673
v -0.312673 4 -0.54156554
v -0.54156554 4 0.312673
v -0.312673 4 0.54156554
# 76 vertices

vn 0 0 0
vn 1 0 0
vn 0 1 0
vn 0 0 -1
vn 0 -1 0
vn -1 0 0
vn -0.9659259 0 0.2588188
vn -0.7071068 0 0.7071068
vn -0.2588188 0 0.9659259
vn 0.2588188 0 -0.9659259
vn 0.7071068 0 -0.7071068
vn 0.9659259 0 -0.2588188
vn -0.2588188 0 -0.9659259
vn -0.7071068 0 -0.7071068
vn -0.9659259 0 -0.2588188
vn 0.2588188 0 0.9659259
vn 0.7071068 0 0.7071068
vn 0.9659259 0 0.2588188
vn -0.25881898 0 0.96592575
vn -0.70710677 0 0.70710677
vn -0.96592575 0 0.25881898
vn -0.25881898 0 -0.96592575
vn -0.70710677 0 -0.70710677
vn -0.96592575 0 -0.25881898
vn 0.96592575 0 0.25881898
vn 0.70710677 0 0.70710677
vn 0.25881898 0 0.96592575
vn 0.96592575 0 -0.25881898
vn 0.70710677 0 -0.70710677
vn 0.25881898 0 -0.96592575
vn -0.9659259 0 -0.258819
vn -0.258819 0 -0.9659259
vn 0.9659259 0 -0.258819
vn 0.258819 0 -0.9659259
vn 0.258819 0 0.9659259
vn 0.9659259 0 0.258819
vn -0.258819 0 0.9659259
vn -0.9659259 0 0.258819
vn 0 0 1
# 39 vertex normals

s 1
f 1//1 1//1 2//1
f 1//1 2//1 2//1
f 3//2 4//2 5//2
f 3//2 5//2 6//2
f 7//3 8//3 9//3
f 9//3 10//3 11//3
f 11//3 12//3 7//3
f 9//3 11//3 7//3
f 13//4 12//4 11//4
f 13//4 11//4 14//4
f 3//5 6//5 15//5
f 15//5 16//5 17//5
f 17//5 18//5 19//5
f 19//5 20//5 21//5
f 21//5 22//5 23//5
f 23//5 24//5 13//5
f 13//5 14//5 25//5
f 25//5 26//5 3//5
f 3//5 15//5 17//5
f 17//5 19//5 21//5
f 21//5 23//5 13//5
f 13//5 25//5 3//5
f 3//5 17//5 21//5
f 21//5 13//5 3//5
f 21//6 27//6 28//6
f 21//6 28//6 22//6
f 29//3 30//3 8//3
f 8//3 7//3 28//3
f 28//3 27//3 29//3
f 8//3 28//3 29//3
f 10//3 9//3 31//3
f 31//3 32//3 5//3
f 5//3 4//3 10//3
f 31//3 5//3 10//3
f 32//3 31//3 30//3
f 30//3 29//3 33//3
f 33//3 34//3 32//3
f 30//3 33//3 32//3
f 35//1 35//1 36//1
f 35//1 36//1 36//1
f 31//1 31//1 9//1
f 37//1 37//1 31//1
f 9//1 9//1 37//1
f 9//1 37//1 31//1
f 38//1 38//1 39//1
f 38//1 39//1 39//1
f 36//1 36//1 40//1
f 36//1 40//1 40//1
f 37//1 37//1 41//1
f 37//1 41//1 41//1
f 42//1 42//1 43//1
f 44//3 45//3 42//3
f 42//3 43//3 46//3
f 44//3 42//3 46//3
f 47//1 40//1 40//1
f 40//3 44//3 46//3
f 47//3 40//3 46//3
f 48//3 47//3 46//3
f 49//1 50//1 50//1
f 50//3 48//3 46//3
f 49//3 50//3 46//3
f 51//3 49//3 46//3
f 46//1 52//1 52//1
f 46//3 52//3 51//3
f 9//1 9//1 8//1
f 35//1 35//1 9//1
f 8//1 8//1 35//1
f 8//1 35//1 9//1
f 30//1 30//1 31//1
f 1//1 1//1 30//1
f 31//1 31//1 1//1
f 31//1 1//1 30//1
f 8//1 8//1 30//1
f 38//1 38//1 8//1
f 30//1 30//1 38//1
f 30//1 38//1 8//1
f 41//1 41//1 50//1
f 41//1 50//1 50//1
f 2//1 2//1 52//1
f 2//1 52//1 52//1
f 39//1 39//1 42//1
f 39//1 42//1 42//1
f 12//3 53//3 7//3
f 53//3 54//3 7//3
f 54//3 28//3 7//3
f 4//3 55//3 10//3
f 55//3 56//3 10//3
f 56//3 11//3 10//3
f 27//3 57//3 29//3
f 57//3 58//3 29//3
f 58//3 33//3 29//3
f 34//3 59//3 32//3
f 59//3 60//3 32//3
f 60//3 5//3 32//3
f 38//3 61//3 8//3
f 61//3 62//3 8//3
f 62//3 35//3 8//3
f 35//3 63//3 9//3
f 63//3 64//3 9//3
f 64//3 37//3 9//3
f 1//3 65//3 30//3
f 65//3 66//3 30//3
f 66//3 38//3 30//3
f 37//3 67//3 31//3
f 67//3 68//3 31//3
f 68//3 1//3 31//3
f 27//7 21//7 20//7
f 27//7 20//7 57//7
f 57//8 20//8 19//8
f 57//8 19//8 58//8
f 58//9 19//9 18//9
f 58//9 18//9 33//9
f 14//10 11//10 56//10
f 14//10 56//10 25//10
f 25//11 56//11 55//11
f 25//11 55//11 26//11
f 26//12 55//12 4//12
f 26//12 4//12 3//12
f 12//13 13//13 24//13
f 12//13 24//13 53//13
f 53//14 24//14 23//14
f 53//14 23//14 54//14
f 54//15 23//15 22//15
f 54//15 22//15 28//15
f 34//16 17//16 16//16
f 34//16 16//16 59//16
f 59//17 16//17 15//17
f 59//17 15//17 60//17
f 60//18 15//18 6//18
f 60//18 6//18 5//18
f 35//19 36//19 69//19
f 35//19 69//19 63//19
f 63//20 69//20 70//20
f 63//20 70//20 64//20
f 64//21 70//21 41//21
f 64//21 41//21 37//21
f 2//22 1//22 68//22
f 2//22 68//22 71//22
f 71//23 68//23 67//23
f 71//23 67//23 72//23
f 72//24 67//24 37//24
f 72//24 37//24 41//24
f 38//25 39//25 73//25
f 38//25 73//25 61//25
f 61//26 73//26 74//26
f 61//26 74//26 62//26
f 62//27 74//27 36//27
f 62//27 36//27 35//27
f 39//28 38//28 66//28
f 39//28 66//28 75//28
f 75//29 66//29 65//29
f 75//29 65//29 76//29
f 76//30 65//30 1//30
f 76//30 1//30 2//30
f 41//31 50//31 49//31
f 41//31 49//31 72//31
f 72//23 49//23 51//23
f 72//23 51//23 71//23
f 71//32 51//32 52//32
f 71//32 52//32 2//32
f 42//33 39//33 75//33
f 42//33 75//33 43//33
f 43//29 75//29 76//29
f 43//29 76//29 46//29
f 46//34 76//34 2//34
f 46//34 2//34 52//34
f 40//35 36//35 74//35
f 40//35 74//35 44//35
f 44//26 74//26 73//26
f 44//26 73//26 45//26
f 45//36 73//36 39//36
f 45//36 39//36 42//36
f 36//37 40//37 47//37
f 36//37 47//37 69//37
f 69//20 47//20 48//20
f 69//20 48//20 70//20
f 70//38 48//38 50//38
f 70//38 50//38 41//38
f 17//39 34//39 33//39
f 17//39 33//39 18//39
#180 polygons

