# Aspose.3D Wavefront OBJ Exporter
# Copyright 2004-2024 Aspose Pty Ltd.
# File created: 02/08/2025 20:15:19

g obj_25639467

#
# object obj_25639467
#

v 1 0 0
v 0.8660254 0 0.5
v 0.5 0 -0.8660254
v 0.8660254 0 -0.5
v 0.5 0 0.8660254
v -0.5 0 -0.8660254
v 0 0 -1
v -0.8660254 0 -0.5
v -0.8660254 0 0.5
v -1 0 0
v -0.5 0 0.8660254
v 0 0 1
v 1 8 0
v 0 8 -1
v -1 8 0
v -0.8660254 8 0.5
v -0.5 8 -0.8660254
v -0.8660254 8 -0.5
v -0.5 8 0.8660254
v 0.5 8 -0.8660254
v 0.8660254 8 -0.5
v 0.8660254 8 0.5
v 0.5 8 0.8660254
v 0 8 1
# 24 vertices

vn 0 0 0
vn 0 -1 0
vn 0 1 0
vn -0.9659258 0 0.25881907
vn -0.70710677 0 0.70710677
vn -0.25881907 0 0.9659258
vn 0.25881907 0 -0.9659258
vn 0.70710677 0 -0.70710677
vn 0.9659258 0 -0.25881907
vn -0.25881907 0 -0.9659258
vn -0.70710677 0 -0.70710677
vn -0.9659258 0 -0.25881907
vn 0.25881907 0 0.9659258
vn 0.70710677 0 0.70710677
vn 0.9659258 0 0.25881907
# 15 vertex normals

s 1
f 1//1 1//1 2//1
f 3//2 4//2 1//2
f 1//2 2//2 5//2
f 3//2 1//2 5//2
f 6//1 7//1 7//1
f 7//2 3//2 5//2
f 6//2 7//2 5//2
f 8//2 6//2 5//2
f 9//1 10//1 10//1
f 10//2 8//2 5//2
f 9//2 10//2 5//2
f 11//2 9//2 5//2
f 5//1 12//1 12//1
f 5//2 12//2 11//2
f 1//1 13//1 13//1
f 1//1 13//1 1//1
f 7//1 14//1 14//1
f 7//1 14//1 7//1
f 15//1 15//1 16//1
f 17//3 18//3 15//3
f 15//3 16//3 19//3
f 17//3 15//3 19//3
f 20//1 14//1 14//1
f 14//3 17//3 19//3
f 20//3 14//3 19//3
f 21//3 20//3 19//3
f 22//1 13//1 13//1
f 13//3 21//3 19//3
f 22//3 13//3 19//3
f 23//3 22//3 19//3
f 19//1 24//1 24//1
f 19//3 24//3 23//3
f 10//1 15//1 15//1
f 10//1 15//1 10//1
f 15//4 10//4 9//4
f 15//4 9//4 16//4
f 16//5 9//5 11//5
f 16//5 11//5 19//5
f 19//6 11//6 12//6
f 19//6 12//6 24//6
f 7//7 14//7 20//7
f 7//7 20//7 3//7
f 3//8 20//8 21//8
f 3//8 21//8 4//8
f 4//9 21//9 13//9
f 4//9 13//9 1//9
f 14//10 7//10 6//10
f 14//10 6//10 17//10
f 17//11 6//11 8//11
f 17//11 8//11 18//11
f 18//12 8//12 10//12
f 18//12 10//12 15//12
f 24//13 12//13 5//13
f 24//13 5//13 23//13
f 23//14 5//14 2//14
f 23//14 2//14 22//14
f 22//15 2//15 1//15
f 22//15 1//15 13//15
f 12//1 24//1 24//1
f 12//1 24//1 12//1
#60 polygons

